<svg width="312" height="48" viewBox="0 0 312 48" fill="none" xmlns="http://www.w3.org/2000/svg">
<g clip-path="url(#clip0)">
<path d="M23.5 27.3402C27.7282 27.3402 31.1667 23.9017 31.1667 19.6735C31.1667 15.4453 27.7282 12.0068 23.5 12.0068C19.2719 12.0068 15.8334 15.4453 15.8334 19.6735C15.8334 23.9017 19.2719 27.3402 23.5 27.3402ZM23.5 15.8402C25.6141 15.8402 27.3334 17.5594 27.3334 19.6735C27.3334 21.7876 25.6141 23.5068 23.5 23.5068C21.386 23.5068 19.6667 21.7876 19.6667 19.6735C19.6667 17.5594 21.386 15.8402 23.5 15.8402Z" fill="white"/>
<path d="M22.3885 42.3172C22.7129 42.5488 23.1015 42.6734 23.5001 42.6734C23.8987 42.6734 24.2874 42.5488 24.6118 42.3172C25.1945 41.9051 38.889 32.017 38.8335 19.6737C38.8335 11.2192 31.9545 4.34033 23.5001 4.34033C15.0457 4.34033 8.16679 11.2192 8.16679 19.6641C8.11121 32.017 21.8058 41.9051 22.3885 42.3172ZM23.5001 8.17367C29.8424 8.17367 35.0001 13.3314 35.0001 19.6832C35.0404 28.1894 26.5898 35.8273 23.5001 38.3324C20.4124 35.8254 11.9599 28.1856 12.0001 19.6737C12.0001 13.3314 17.1579 8.17367 23.5001 8.17367Z" fill="white"/>
<path d="M64.105 19.2268L59.935 29.0068H58.555L62.785 19.3618H56.995V18.1918H64.105V19.2268ZM65.4885 26.5918V25.5568L70.7535 18.2668H72.3885V25.4068H73.8885V26.5918H72.3885V29.0068H71.0385V26.5918H65.4885ZM71.0985 19.6918L67.0635 25.4068H71.0985V19.6918ZM77.4321 23.3668C76.8721 23.1468 76.4421 22.8268 76.1421 22.4068C75.8421 21.9868 75.6921 21.4768 75.6921 20.8768C75.6921 20.3368 75.8271 19.8518 76.0971 19.4218C76.3671 18.9818 76.7671 18.6368 77.2971 18.3868C77.8371 18.1268 78.4871 17.9968 79.2471 17.9968C80.0071 17.9968 80.6521 18.1268 81.1821 18.3868C81.7221 18.6368 82.1271 18.9818 82.3971 19.4218C82.6771 19.8518 82.8171 20.3368 82.8171 20.8768C82.8171 21.4568 82.6621 21.9668 82.3521 22.4068C82.0421 22.8368 81.6171 23.1568 81.0771 23.3668C81.6971 23.5568 82.1871 23.8918 82.5471 24.3718C82.9171 24.8418 83.1021 25.4118 83.1021 26.0818C83.1021 26.7318 82.9421 27.3018 82.6221 27.7918C82.3021 28.2718 81.8471 28.6468 81.2571 28.9168C80.6771 29.1768 80.0071 29.3068 79.2471 29.3068C78.4871 29.3068 77.8171 29.1768 77.2371 28.9168C76.6671 28.6468 76.2221 28.2718 75.9021 27.7918C75.5821 27.3018 75.4221 26.7318 75.4221 26.0818C75.4221 25.4118 75.6021 24.8368 75.9621 24.3568C76.3221 23.8768 76.8121 23.5468 77.4321 23.3668ZM81.4971 21.0418C81.4971 20.4318 81.2971 19.9618 80.8971 19.6318C80.4971 19.3018 79.9471 19.1368 79.2471 19.1368C78.5571 19.1368 78.0121 19.3018 77.6121 19.6318C77.2121 19.9618 77.0121 20.4368 77.0121 21.0568C77.0121 21.6168 77.2171 22.0668 77.6271 22.4068C78.0471 22.7468 78.5871 22.9168 79.2471 22.9168C79.9171 22.9168 80.4571 22.7468 80.8671 22.4068C81.2871 22.0568 81.4971 21.6018 81.4971 21.0418ZM79.2471 23.9668C78.5071 23.9668 77.9021 24.1418 77.4321 24.4918C76.9621 24.8318 76.7271 25.3468 76.7271 26.0368C76.7271 26.6768 76.9521 27.1918 77.4021 27.5818C77.8621 27.9718 78.4771 28.1668 79.2471 28.1668C80.0171 28.1668 80.6271 27.9718 81.0771 27.5818C81.5271 27.1918 81.7521 26.6768 81.7521 26.0368C81.7521 25.3668 81.5221 24.8568 81.0621 24.5068C80.6021 24.1468 79.9971 23.9668 79.2471 23.9668ZM85.115 23.4718C85.115 21.7518 85.395 20.4118 85.955 19.4518C86.515 18.4818 87.495 17.9968 88.895 17.9968C90.285 17.9968 91.26 18.4818 91.82 19.4518C92.38 20.4118 92.66 21.7518 92.66 23.4718C92.66 25.2218 92.38 26.5818 91.82 27.5518C91.26 28.5218 90.285 29.0068 88.895 29.0068C87.495 29.0068 86.515 28.5218 85.955 27.5518C85.395 26.5818 85.115 25.2218 85.115 23.4718ZM91.31 23.4718C91.31 22.6018 91.25 21.8668 91.13 21.2668C91.02 20.6568 90.785 20.1668 90.425 19.7968C90.075 19.4268 89.565 19.2418 88.895 19.2418C88.215 19.2418 87.695 19.4268 87.335 19.7968C86.985 20.1668 86.75 20.6568 86.63 21.2668C86.52 21.8668 86.465 22.6018 86.465 23.4718C86.465 24.3718 86.52 25.1268 86.63 25.7368C86.75 26.3468 86.985 26.8368 87.335 27.2068C87.695 27.5768 88.215 27.7618 88.895 27.7618C89.565 27.7618 90.075 27.5768 90.425 27.2068C90.785 26.8368 91.02 26.3468 91.13 25.7368C91.25 25.1268 91.31 24.3718 91.31 23.4718ZM109.763 18.6268V29.0068H108.398V21.2668L104.948 29.0068H103.988L100.523 21.2518V29.0068H99.1579V18.6268H100.628L104.468 27.2068L108.308 18.6268H109.763ZM115.863 29.1418C115.093 29.1418 114.393 28.9668 113.763 28.6168C113.143 28.2668 112.653 27.7718 112.293 27.1318C111.943 26.4818 111.768 25.7318 111.768 24.8818C111.768 24.0418 111.948 23.3018 112.308 22.6618C112.678 22.0118 113.178 21.5168 113.808 21.1768C114.438 20.8268 115.143 20.6518 115.923 20.6518C116.703 20.6518 117.408 20.8268 118.038 21.1768C118.668 21.5168 119.163 22.0068 119.523 22.6468C119.893 23.2868 120.078 24.0318 120.078 24.8818C120.078 25.7318 119.888 26.4818 119.508 27.1318C119.138 27.7718 118.633 28.2668 117.993 28.6168C117.353 28.9668 116.643 29.1418 115.863 29.1418ZM115.863 27.9418C116.353 27.9418 116.813 27.8268 117.243 27.5968C117.673 27.3668 118.018 27.0218 118.278 26.5618C118.548 26.1018 118.683 25.5418 118.683 24.8818C118.683 24.2218 118.553 23.6618 118.293 23.2018C118.033 22.7418 117.693 22.4018 117.273 22.1818C116.853 21.9518 116.398 21.8368 115.908 21.8368C115.408 21.8368 114.948 21.9518 114.528 22.1818C114.118 22.4018 113.788 22.7418 113.538 23.2018C113.288 23.6618 113.163 24.2218 113.163 24.8818C113.163 25.5518 113.283 26.1168 113.523 26.5768C113.773 27.0368 114.103 27.3818 114.513 27.6118C114.923 27.8318 115.373 27.9418 115.863 27.9418ZM121.563 24.8818C121.563 24.0318 121.733 23.2918 122.073 22.6618C122.413 22.0218 122.883 21.5268 123.483 21.1768C124.093 20.8268 124.788 20.6518 125.568 20.6518C126.578 20.6518 127.408 20.8968 128.058 21.3868C128.718 21.8768 129.153 22.5568 129.363 23.4268H127.893C127.753 22.9268 127.478 22.5318 127.068 22.2418C126.668 21.9518 126.168 21.8068 125.568 21.8068C124.788 21.8068 124.158 22.0768 123.678 22.6168C123.198 23.1468 122.958 23.9018 122.958 24.8818C122.958 25.8718 123.198 26.6368 123.678 27.1768C124.158 27.7168 124.788 27.9868 125.568 27.9868C126.168 27.9868 126.668 27.8468 127.068 27.5668C127.468 27.2868 127.743 26.8868 127.893 26.3668H129.363C129.143 27.2068 128.703 27.8818 128.043 28.3918C127.383 28.8918 126.558 29.1418 125.568 29.1418C124.788 29.1418 124.093 28.9668 123.483 28.6168C122.883 28.2668 122.413 27.7718 122.073 27.1318C121.733 26.4918 121.563 25.7418 121.563 24.8818ZM135.974 29.0068L132.749 25.3768V29.0068H131.384V17.9068H132.749V24.4318L135.914 20.7868H137.819L133.949 24.8818L137.834 29.0068H135.974ZM140.009 19.4518C139.749 19.4518 139.529 19.3618 139.349 19.1818C139.169 19.0018 139.079 18.7818 139.079 18.5218C139.079 18.2618 139.169 18.0418 139.349 17.8618C139.529 17.6818 139.749 17.5918 140.009 17.5918C140.259 17.5918 140.469 17.6818 140.639 17.8618C140.819 18.0418 140.909 18.2618 140.909 18.5218C140.909 18.7818 140.819 19.0018 140.639 19.1818C140.469 19.3618 140.259 19.4518 140.009 19.4518ZM140.669 20.7868V29.0068H139.304V20.7868H140.669ZM147.2 20.6368C148.2 20.6368 149.01 20.9418 149.63 21.5518C150.25 22.1518 150.56 23.0218 150.56 24.1618V29.0068H149.21V24.3568C149.21 23.5368 149.005 22.9118 148.595 22.4818C148.185 22.0418 147.625 21.8218 146.915 21.8218C146.195 21.8218 145.62 22.0468 145.19 22.4968C144.77 22.9468 144.56 23.6018 144.56 24.4618V29.0068H143.195V20.7868H144.56V21.9568C144.83 21.5368 145.195 21.2118 145.655 20.9818C146.125 20.7518 146.64 20.6368 147.2 20.6368ZM156.38 20.6518C157.09 20.6518 157.71 20.8068 158.24 21.1168C158.78 21.4268 159.18 21.8168 159.44 22.2868V20.7868H160.82V29.1868C160.82 29.9368 160.66 30.6018 160.34 31.1818C160.02 31.7718 159.56 32.2318 158.96 32.5618C158.37 32.8918 157.68 33.0568 156.89 33.0568C155.81 33.0568 154.91 32.8018 154.19 32.2918C153.47 31.7818 153.045 31.0868 152.915 30.2068H154.265C154.415 30.7068 154.725 31.1068 155.195 31.4068C155.665 31.7168 156.23 31.8718 156.89 31.8718C157.64 31.8718 158.25 31.6368 158.72 31.1668C159.2 30.6968 159.44 30.0368 159.44 29.1868V27.4618C159.17 27.9418 158.77 28.3418 158.24 28.6618C157.71 28.9818 157.09 29.1418 156.38 29.1418C155.65 29.1418 154.985 28.9618 154.385 28.6018C153.795 28.2418 153.33 27.7368 152.99 27.0868C152.65 26.4368 152.48 25.6968 152.48 24.8668C152.48 24.0268 152.65 23.2918 152.99 22.6618C153.33 22.0218 153.795 21.5268 154.385 21.1768C154.985 20.8268 155.65 20.6518 156.38 20.6518ZM159.44 24.8818C159.44 24.2618 159.315 23.7218 159.065 23.2618C158.815 22.8018 158.475 22.4518 158.045 22.2118C157.625 21.9618 157.16 21.8368 156.65 21.8368C156.14 21.8368 155.675 21.9568 155.255 22.1968C154.835 22.4368 154.5 22.7868 154.25 23.2468C154 23.7068 153.875 24.2468 153.875 24.8668C153.875 25.4968 154 26.0468 154.25 26.5168C154.5 26.9768 154.835 27.3318 155.255 27.5818C155.675 27.8218 156.14 27.9418 156.65 27.9418C157.16 27.9418 157.625 27.8218 158.045 27.5818C158.475 27.3318 158.815 26.9768 159.065 26.5168C159.315 26.0468 159.44 25.5018 159.44 24.8818ZM164.691 22.3168C164.971 21.8268 165.381 21.4268 165.921 21.1168C166.461 20.8068 167.076 20.6518 167.766 20.6518C168.506 20.6518 169.171 20.8268 169.761 21.1768C170.351 21.5268 170.816 22.0218 171.156 22.6618C171.496 23.2918 171.666 24.0268 171.666 24.8668C171.666 25.6968 171.496 26.4368 171.156 27.0868C170.816 27.7368 170.346 28.2418 169.746 28.6018C169.156 28.9618 168.496 29.1418 167.766 29.1418C167.056 29.1418 166.431 28.9868 165.891 28.6768C165.361 28.3668 164.961 27.9718 164.691 27.4918V29.0068H163.326V17.9068H164.691V22.3168ZM170.271 24.8668C170.271 24.2468 170.146 23.7068 169.896 23.2468C169.646 22.7868 169.306 22.4368 168.876 22.1968C168.456 21.9568 167.991 21.8368 167.481 21.8368C166.981 21.8368 166.516 21.9618 166.086 22.2118C165.666 22.4518 165.326 22.8068 165.066 23.2768C164.816 23.7368 164.691 24.2718 164.691 24.8818C164.691 25.5018 164.816 26.0468 165.066 26.5168C165.326 26.9768 165.666 27.3318 166.086 27.5818C166.516 27.8218 166.981 27.9418 167.481 27.9418C167.991 27.9418 168.456 27.8218 168.876 27.5818C169.306 27.3318 169.646 26.9768 169.896 26.5168C170.146 26.0468 170.271 25.4968 170.271 24.8668ZM174.368 19.4518C174.108 19.4518 173.888 19.3618 173.708 19.1818C173.528 19.0018 173.438 18.7818 173.438 18.5218C173.438 18.2618 173.528 18.0418 173.708 17.8618C173.888 17.6818 174.108 17.5918 174.368 17.5918C174.618 17.5918 174.828 17.6818 174.998 17.8618C175.178 18.0418 175.268 18.2618 175.268 18.5218C175.268 18.7818 175.178 19.0018 174.998 19.1818C174.828 19.3618 174.618 19.4518 174.368 19.4518ZM175.028 20.7868V29.0068H173.663V20.7868H175.028ZM178.92 22.1218C179.16 21.6518 179.5 21.2868 179.94 21.0268C180.39 20.7668 180.935 20.6368 181.575 20.6368V22.0468H181.215C179.685 22.0468 178.92 22.8768 178.92 24.5368V29.0068H177.555V20.7868H178.92V22.1218ZM182.84 24.8668C182.84 24.0268 183.01 23.2918 183.35 22.6618C183.69 22.0218 184.155 21.5268 184.745 21.1768C185.345 20.8268 186.015 20.6518 186.755 20.6518C187.395 20.6518 187.99 20.8018 188.54 21.1018C189.09 21.3918 189.51 21.7768 189.8 22.2568V17.9068H191.18V29.0068H189.8V27.4618C189.53 27.9518 189.13 28.3568 188.6 28.6768C188.07 28.9868 187.45 29.1418 186.74 29.1418C186.01 29.1418 185.345 28.9618 184.745 28.6018C184.155 28.2418 183.69 27.7368 183.35 27.0868C183.01 26.4368 182.84 25.6968 182.84 24.8668ZM189.8 24.8818C189.8 24.2618 189.675 23.7218 189.425 23.2618C189.175 22.8018 188.835 22.4518 188.405 22.2118C187.985 21.9618 187.52 21.8368 187.01 21.8368C186.5 21.8368 186.035 21.9568 185.615 22.1968C185.195 22.4368 184.86 22.7868 184.61 23.2468C184.36 23.7068 184.235 24.2468 184.235 24.8668C184.235 25.4968 184.36 26.0468 184.61 26.5168C184.86 26.9768 185.195 27.3318 185.615 27.5818C186.035 27.8218 186.5 27.9418 187.01 27.9418C187.52 27.9418 187.985 27.8218 188.405 27.5818C188.835 27.3318 189.175 26.9768 189.425 26.5168C189.675 26.0468 189.8 25.5018 189.8 24.8818ZM205.941 18.5518V29.0068H204.576V24.2668H199.251V29.0068H197.886V18.5518H199.251V23.1418H204.576V18.5518H205.941ZM209.177 19.4518C208.917 19.4518 208.697 19.3618 208.517 19.1818C208.337 19.0018 208.247 18.7818 208.247 18.5218C208.247 18.2618 208.337 18.0418 208.517 17.8618C208.697 17.6818 208.917 17.5918 209.177 17.5918C209.427 17.5918 209.637 17.6818 209.807 17.8618C209.987 18.0418 210.077 18.2618 210.077 18.5218C210.077 18.7818 209.987 19.0018 209.807 19.1818C209.637 19.3618 209.427 19.4518 209.177 19.4518ZM209.837 20.7868V29.0068H208.472V20.7868H209.837ZM213.728 17.9068V29.0068H212.363V17.9068H213.728ZM217.62 17.9068V29.0068H216.255V17.9068H217.62ZM231.635 20.7868V29.0068H230.27V27.7918C230.01 28.2118 229.645 28.5418 229.175 28.7818C228.715 29.0118 228.205 29.1268 227.645 29.1268C227.005 29.1268 226.43 28.9968 225.92 28.7368C225.41 28.4668 225.005 28.0668 224.705 27.5368C224.415 27.0068 224.27 26.3618 224.27 25.6018V20.7868H225.62V25.4218C225.62 26.2318 225.825 26.8568 226.235 27.2968C226.645 27.7268 227.205 27.9418 227.915 27.9418C228.645 27.9418 229.22 27.7168 229.64 27.2668C230.06 26.8168 230.27 26.1618 230.27 25.3018V20.7868H231.635ZM238.145 20.6368C239.145 20.6368 239.955 20.9418 240.575 21.5518C241.195 22.1518 241.505 23.0218 241.505 24.1618V29.0068H240.155V24.3568C240.155 23.5368 239.95 22.9118 239.54 22.4818C239.13 22.0418 238.57 21.8218 237.86 21.8218C237.14 21.8218 236.565 22.0468 236.135 22.4968C235.715 22.9468 235.505 23.6018 235.505 24.4618V29.0068H234.14V20.7868H235.505V21.9568C235.775 21.5368 236.14 21.2118 236.6 20.9818C237.07 20.7518 237.585 20.6368 238.145 20.6368ZM243.424 24.8668C243.424 24.0268 243.594 23.2918 243.934 22.6618C244.274 22.0218 244.739 21.5268 245.329 21.1768C245.929 20.8268 246.599 20.6518 247.339 20.6518C247.979 20.6518 248.574 20.8018 249.124 21.1018C249.674 21.3918 250.094 21.7768 250.384 22.2568V17.9068H251.764V29.0068H250.384V27.4618C250.114 27.9518 249.714 28.3568 249.184 28.6768C248.654 28.9868 248.034 29.1418 247.324 29.1418C246.594 29.1418 245.929 28.9618 245.329 28.6018C244.739 28.2418 244.274 27.7368 243.934 27.0868C243.594 26.4368 243.424 25.6968 243.424 24.8668ZM250.384 24.8818C250.384 24.2618 250.259 23.7218 250.009 23.2618C249.759 22.8018 249.419 22.4518 248.989 22.2118C248.569 21.9618 248.104 21.8368 247.594 21.8368C247.084 21.8368 246.619 21.9568 246.199 22.1968C245.779 22.4368 245.444 22.7868 245.194 23.2468C244.944 23.7068 244.819 24.2468 244.819 24.8668C244.819 25.4968 244.944 26.0468 245.194 26.5168C245.444 26.9768 245.779 27.3318 246.199 27.5818C246.619 27.8218 247.084 27.9418 247.594 27.9418C248.104 27.9418 248.569 27.8218 248.989 27.5818C249.419 27.3318 249.759 26.9768 250.009 26.5168C250.259 26.0468 250.384 25.5018 250.384 24.8818ZM261.771 24.5818C261.771 24.8418 261.756 25.1168 261.726 25.4068H255.156C255.206 26.2168 255.481 26.8518 255.981 27.3118C256.491 27.7618 257.106 27.9868 257.826 27.9868C258.416 27.9868 258.906 27.8518 259.296 27.5818C259.696 27.3018 259.976 26.9318 260.136 26.4718H261.606C261.386 27.2618 260.946 27.9068 260.286 28.4068C259.626 28.8968 258.806 29.1418 257.826 29.1418C257.046 29.1418 256.346 28.9668 255.726 28.6168C255.116 28.2668 254.636 27.7718 254.286 27.1318C253.936 26.4818 253.761 25.7318 253.761 24.8818C253.761 24.0318 253.931 23.2868 254.271 22.6468C254.611 22.0068 255.086 21.5168 255.696 21.1768C256.316 20.8268 257.026 20.6518 257.826 20.6518C258.606 20.6518 259.296 20.8218 259.896 21.1618C260.496 21.5018 260.956 21.9718 261.276 22.5718C261.606 23.1618 261.771 23.8318 261.771 24.5818ZM260.361 24.2968C260.361 23.7768 260.246 23.3318 260.016 22.9618C259.786 22.5818 259.471 22.2968 259.071 22.1068C258.681 21.9068 258.246 21.8068 257.766 21.8068C257.076 21.8068 256.486 22.0268 255.996 22.4668C255.516 22.9068 255.241 23.5168 255.171 24.2968H260.361ZM267.118 21.9118H265.393V29.0068H264.028V21.9118H262.963V20.7868H264.028V20.2018C264.028 19.2818 264.263 18.6118 264.733 18.1918C265.213 17.7618 265.978 17.5468 267.028 17.5468V18.6868C266.428 18.6868 266.003 18.8068 265.753 19.0468C265.513 19.2768 265.393 19.6618 265.393 20.2018V20.7868H267.118V21.9118ZM269.614 19.4518C269.354 19.4518 269.134 19.3618 268.954 19.1818C268.774 19.0018 268.684 18.7818 268.684 18.5218C268.684 18.2618 268.774 18.0418 268.954 17.8618C269.134 17.6818 269.354 17.5918 269.614 17.5918C269.864 17.5918 270.074 17.6818 270.244 17.8618C270.424 18.0418 270.514 18.2618 270.514 18.5218C270.514 18.7818 270.424 19.0018 270.244 19.1818C270.074 19.3618 269.864 19.4518 269.614 19.4518ZM270.274 20.7868V29.0068H268.909V20.7868H270.274ZM276.806 20.6368C277.806 20.6368 278.616 20.9418 279.236 21.5518C279.856 22.1518 280.166 23.0218 280.166 24.1618V29.0068H278.816V24.3568C278.816 23.5368 278.611 22.9118 278.201 22.4818C277.791 22.0418 277.231 21.8218 276.521 21.8218C275.801 21.8218 275.226 22.0468 274.796 22.4968C274.376 22.9468 274.166 23.6018 274.166 24.4618V29.0068H272.801V20.7868H274.166V21.9568C274.436 21.5368 274.801 21.2118 275.261 20.9818C275.731 20.7518 276.246 20.6368 276.806 20.6368ZM290.096 24.5818C290.096 24.8418 290.081 25.1168 290.051 25.4068H283.481C283.531 26.2168 283.806 26.8518 284.306 27.3118C284.816 27.7618 285.431 27.9868 286.151 27.9868C286.741 27.9868 287.231 27.8518 287.621 27.5818C288.021 27.3018 288.301 26.9318 288.461 26.4718H289.931C289.711 27.2618 289.271 27.9068 288.611 28.4068C287.951 28.8968 287.131 29.1418 286.151 29.1418C285.371 29.1418 284.671 28.9668 284.051 28.6168C283.441 28.2668 282.961 27.7718 282.611 27.1318C282.261 26.4818 282.086 25.7318 282.086 24.8818C282.086 24.0318 282.256 23.2868 282.596 22.6468C282.936 22.0068 283.411 21.5168 284.021 21.1768C284.641 20.8268 285.351 20.6518 286.151 20.6518C286.931 20.6518 287.621 20.8218 288.221 21.1618C288.821 21.5018 289.281 21.9718 289.601 22.5718C289.931 23.1618 290.096 23.8318 290.096 24.5818ZM288.686 24.2968C288.686 23.7768 288.571 23.3318 288.341 22.9618C288.111 22.5818 287.796 22.2968 287.396 22.1068C287.006 21.9068 286.571 21.8068 286.091 21.8068C285.401 21.8068 284.811 22.0268 284.321 22.4668C283.841 22.9068 283.566 23.5168 283.496 24.2968H288.686ZM291.587 24.8668C291.587 24.0268 291.757 23.2918 292.097 22.6618C292.437 22.0218 292.902 21.5268 293.492 21.1768C294.092 20.8268 294.762 20.6518 295.502 20.6518C296.142 20.6518 296.737 20.8018 297.287 21.1018C297.837 21.3918 298.257 21.7768 298.547 22.2568V17.9068H299.927V29.0068H298.547V27.4618C298.277 27.9518 297.877 28.3568 297.347 28.6768C296.817 28.9868 296.197 29.1418 295.487 29.1418C294.757 29.1418 294.092 28.9618 293.492 28.6018C292.902 28.2418 292.437 27.7368 292.097 27.0868C291.757 26.4368 291.587 25.6968 291.587 24.8668ZM298.547 24.8818C298.547 24.2618 298.422 23.7218 298.172 23.2618C297.922 22.8018 297.582 22.4518 297.152 22.2118C296.732 21.9618 296.267 21.8368 295.757 21.8368C295.247 21.8368 294.782 21.9568 294.362 22.1968C293.942 22.4368 293.607 22.7868 293.357 23.2468C293.107 23.7068 292.982 24.2468 292.982 24.8668C292.982 25.4968 293.107 26.0468 293.357 26.5168C293.607 26.9768 293.942 27.3318 294.362 27.5818C294.782 27.8218 295.247 27.9418 295.757 27.9418C296.267 27.9418 296.732 27.8218 297.152 27.5818C297.582 27.3318 297.922 26.9768 298.172 26.5168C298.422 26.0468 298.547 25.5018 298.547 24.8818Z" fill="white"/>
</g>
<defs>
<clipPath id="clip0">
<rect width="311" height="47" fill="white" transform="translate(0.5 0.00683594)"/>
</clipPath>
</defs>
</svg>
