<svg width="173" height="48" viewBox="0 0 173 48" fill="none" xmlns="http://www.w3.org/2000/svg">
<g clip-path="url(#clip0)">
<path d="M23.8333 7.46533H12.1666C9.74579 7.46533 7.79163 9.4195 7.79163 11.8403V35.1737C7.79163 37.5945 9.74579 39.5487 12.1666 39.5487H23.8333C26.2541 39.5487 28.2083 37.5945 28.2083 35.1737V11.8403C28.2083 9.4195 26.2541 7.46533 23.8333 7.46533ZM20.9166 36.632H15.0833V35.1737H20.9166V36.632ZM25.6562 32.257H10.3437V11.8403H25.6562V32.257Z" fill="white"/>
<path d="M50.165 31.7968C49.205 30.8568 48.455 29.6618 47.915 28.2118C47.385 26.7618 47.12 25.1968 47.12 23.5168C47.12 21.7968 47.4 20.1918 47.96 18.7018C48.53 17.2018 49.34 15.9668 50.39 14.9968H51.815V15.1318C50.695 16.1818 49.85 17.4468 49.28 18.9268C48.72 20.3968 48.44 21.9268 48.44 23.5168C48.44 25.0668 48.705 26.5468 49.235 27.9568C49.775 29.3668 50.56 30.6018 51.59 31.6618V31.7968H50.165ZM53.2765 27.9118C54.5465 26.8918 55.5415 26.0568 56.2615 25.4068C56.9815 24.7468 57.5865 24.0618 58.0765 23.3518C58.5765 22.6318 58.8265 21.9268 58.8265 21.2368C58.8265 20.5868 58.6665 20.0768 58.3465 19.7068C58.0365 19.3268 57.5315 19.1368 56.8315 19.1368C56.1515 19.1368 55.6215 19.3518 55.2415 19.7818C54.8715 20.2018 54.6715 20.7668 54.6415 21.4768H53.3215C53.3615 20.3568 53.7015 19.4918 54.3415 18.8818C54.9815 18.2718 55.8065 17.9668 56.8165 17.9668C57.8465 17.9668 58.6615 18.2518 59.2615 18.8218C59.8715 19.3918 60.1765 20.1768 60.1765 21.1768C60.1765 22.0068 59.9265 22.8168 59.4265 23.6068C58.9365 24.3868 58.3765 25.0768 57.7465 25.6768C57.1165 26.2668 56.3115 26.9568 55.3315 27.7468H60.4915V28.8868H53.2765V27.9118ZM62.2395 20.8918C62.3095 19.9718 62.6645 19.2518 63.3045 18.7318C63.9445 18.2118 64.7745 17.9518 65.7945 17.9518C66.4745 17.9518 67.0595 18.0768 67.5495 18.3268C68.0495 18.5668 68.4245 18.8968 68.6745 19.3168C68.9345 19.7368 69.0645 20.2118 69.0645 20.7418C69.0645 21.3618 68.8845 21.8968 68.5245 22.3468C68.1745 22.7968 67.7145 23.0868 67.1445 23.2168V23.2918C67.7945 23.4518 68.3095 23.7668 68.6895 24.2368C69.0695 24.7068 69.2595 25.3218 69.2595 26.0818C69.2595 26.6518 69.1295 27.1668 68.8695 27.6268C68.6095 28.0768 68.2195 28.4318 67.6995 28.6918C67.1795 28.9518 66.5545 29.0818 65.8245 29.0818C64.7645 29.0818 63.8945 28.8068 63.2145 28.2568C62.5345 27.6968 62.1545 26.9068 62.0745 25.8868H63.3945C63.4645 26.4868 63.7095 26.9768 64.1295 27.3568C64.5495 27.7368 65.1095 27.9268 65.8095 27.9268C66.5095 27.9268 67.0395 27.7468 67.3995 27.3868C67.7695 27.0168 67.9545 26.5418 67.9545 25.9618C67.9545 25.2118 67.7045 24.6718 67.2045 24.3418C66.7045 24.0118 65.9495 23.8468 64.9395 23.8468H64.5945V22.7068H64.9545C65.8745 22.6968 66.5695 22.5468 67.0395 22.2568C67.5095 21.9568 67.7445 21.4968 67.7445 20.8768C67.7445 20.3468 67.5695 19.9218 67.2195 19.6018C66.8795 19.2818 66.3895 19.1218 65.7495 19.1218C65.1295 19.1218 64.6295 19.2818 64.2495 19.6018C63.8695 19.9218 63.6445 20.3518 63.5745 20.8918H62.2395ZM73.0575 26.0968C73.1575 26.6668 73.3875 27.1068 73.7475 27.4168C74.1175 27.7268 74.6125 27.8818 75.2325 27.8818C76.0625 27.8818 76.6725 27.5568 77.0625 26.9068C77.4625 26.2568 77.6525 25.1618 77.6325 23.6218C77.4225 24.0718 77.0725 24.4268 76.5825 24.6868C76.0925 24.9368 75.5475 25.0618 74.9475 25.0618C74.2775 25.0618 73.6775 24.9268 73.1475 24.6568C72.6275 24.3768 72.2175 23.9718 71.9175 23.4418C71.6175 22.9118 71.4675 22.2718 71.4675 21.5218C71.4675 20.4518 71.7775 19.5918 72.3975 18.9418C73.0175 18.2818 73.8975 17.9518 75.0375 17.9518C76.4375 17.9518 77.4175 18.4068 77.9775 19.3168C78.5475 20.2268 78.8325 21.5818 78.8325 23.3818C78.8325 24.6418 78.7175 25.6818 78.4875 26.5018C78.2675 27.3218 77.8875 27.9468 77.3475 28.3768C76.8175 28.8068 76.0875 29.0218 75.1575 29.0218C74.1375 29.0218 73.3425 28.7468 72.7725 28.1968C72.2025 27.6468 71.8775 26.9468 71.7975 26.0968H73.0575ZM75.1725 23.9068C75.8425 23.9068 76.3925 23.7018 76.8225 23.2918C77.2525 22.8718 77.4675 22.3068 77.4675 21.5968C77.4675 20.8468 77.2575 20.2418 76.8375 19.7818C76.4175 19.3218 75.8275 19.0918 75.0675 19.0918C74.3675 19.0918 73.8075 19.3118 73.3875 19.7518C72.9775 20.1918 72.7725 20.7718 72.7725 21.4918C72.7725 22.2218 72.9775 22.8068 73.3875 23.2468C73.7975 23.6868 74.3925 23.9068 75.1725 23.9068ZM80.7407 31.7968V31.6618C81.7707 30.6018 82.5507 29.3668 83.0807 27.9568C83.6207 26.5468 83.8907 25.0668 83.8907 23.5168C83.8907 21.9268 83.6057 20.3968 83.0357 18.9268C82.4757 17.4468 81.6357 16.1818 80.5157 15.1318V14.9968H81.9407C82.9907 15.9668 83.7957 17.2018 84.3557 18.7018C84.9257 20.1918 85.2107 21.7968 85.2107 23.5168C85.2107 25.1968 84.9407 26.7618 84.4007 28.2118C83.8707 29.6618 83.1257 30.8568 82.1657 31.7968H80.7407ZM99.0763 19.3468H93.8113V22.7668C94.0413 22.4468 94.3813 22.1868 94.8313 21.9868C95.2813 21.7768 95.7663 21.6718 96.2863 21.6718C97.1163 21.6718 97.7913 21.8468 98.3113 22.1968C98.8313 22.5368 99.2013 22.9818 99.4213 23.5318C99.6513 24.0718 99.7663 24.6468 99.7663 25.2568C99.7663 25.9768 99.6313 26.6218 99.3613 27.1918C99.0913 27.7618 98.6763 28.2118 98.1163 28.5418C97.5663 28.8718 96.8813 29.0368 96.0613 29.0368C95.0113 29.0368 94.1613 28.7668 93.5113 28.2268C92.8613 27.6868 92.4663 26.9668 92.3263 26.0668H93.6613C93.7913 26.6368 94.0663 27.0818 94.4863 27.4018C94.9063 27.7218 95.4363 27.8818 96.0763 27.8818C96.8663 27.8818 97.4613 27.6468 97.8613 27.1768C98.2613 26.6968 98.4613 26.0668 98.4613 25.2868C98.4613 24.5068 98.2613 23.9068 97.8613 23.4868C97.4613 23.0568 96.8713 22.8418 96.0913 22.8418C95.5613 22.8418 95.0963 22.9718 94.6963 23.2318C94.3063 23.4818 94.0213 23.8268 93.8413 24.2668H92.5513V18.1468H99.0763V19.3468ZM108.695 19.3468H103.43V22.7668C103.66 22.4468 104 22.1868 104.45 21.9868C104.9 21.7768 105.385 21.6718 105.905 21.6718C106.735 21.6718 107.41 21.8468 107.93 22.1968C108.45 22.5368 108.82 22.9818 109.04 23.5318C109.27 24.0718 109.385 24.6468 109.385 25.2568C109.385 25.9768 109.25 26.6218 108.98 27.1918C108.71 27.7618 108.295 28.2118 107.735 28.5418C107.185 28.8718 106.5 29.0368 105.68 29.0368C104.63 29.0368 103.78 28.7668 103.13 28.2268C102.48 27.6868 102.085 26.9668 101.945 26.0668H103.28C103.41 26.6368 103.685 27.0818 104.105 27.4018C104.525 27.7218 105.055 27.8818 105.695 27.8818C106.485 27.8818 107.08 27.6468 107.48 27.1768C107.88 26.6968 108.08 26.0668 108.08 25.2868C108.08 24.5068 107.88 23.9068 107.48 23.4868C107.08 23.0568 106.49 22.8418 105.71 22.8418C105.18 22.8418 104.715 22.9718 104.315 23.2318C103.925 23.4818 103.64 23.8268 103.46 24.2668H102.17V18.1468H108.695V19.3468ZM118.314 19.3468H113.049V22.7668C113.279 22.4468 113.619 22.1868 114.069 21.9868C114.519 21.7768 115.004 21.6718 115.524 21.6718C116.354 21.6718 117.029 21.8468 117.549 22.1968C118.069 22.5368 118.439 22.9818 118.659 23.5318C118.889 24.0718 119.004 24.6468 119.004 25.2568C119.004 25.9768 118.869 26.6218 118.599 27.1918C118.329 27.7618 117.914 28.2118 117.354 28.5418C116.804 28.8718 116.119 29.0368 115.299 29.0368C114.249 29.0368 113.399 28.7668 112.749 28.2268C112.099 27.6868 111.704 26.9668 111.564 26.0668H112.899C113.029 26.6368 113.304 27.0818 113.724 27.4018C114.144 27.7218 114.674 27.8818 115.314 27.8818C116.104 27.8818 116.699 27.6468 117.099 27.1768C117.499 26.6968 117.699 26.0668 117.699 25.2868C117.699 24.5068 117.499 23.9068 117.099 23.4868C116.699 23.0568 116.109 22.8418 115.329 22.8418C114.799 22.8418 114.334 22.9718 113.934 23.2318C113.544 23.4818 113.259 23.8268 113.079 24.2668H111.789V18.1468H118.314V19.3468ZM126.943 22.9318V24.0868H120.958V22.9318H126.943ZM129.48 23.4718C129.48 21.7518 129.76 20.4118 130.32 19.4518C130.88 18.4818 131.86 17.9968 133.26 17.9968C134.65 17.9968 135.625 18.4818 136.185 19.4518C136.745 20.4118 137.025 21.7518 137.025 23.4718C137.025 25.2218 136.745 26.5818 136.185 27.5518C135.625 28.5218 134.65 29.0068 133.26 29.0068C131.86 29.0068 130.88 28.5218 130.32 27.5518C129.76 26.5818 129.48 25.2218 129.48 23.4718ZM135.675 23.4718C135.675 22.6018 135.615 21.8668 135.495 21.2668C135.385 20.6568 135.15 20.1668 134.79 19.7968C134.44 19.4268 133.93 19.2418 133.26 19.2418C132.58 19.2418 132.06 19.4268 131.7 19.7968C131.35 20.1668 131.115 20.6568 130.995 21.2668C130.885 21.8668 130.83 22.6018 130.83 23.4718C130.83 24.3718 130.885 25.1268 130.995 25.7368C131.115 26.3468 131.35 26.8368 131.7 27.2068C132.06 27.5768 132.58 27.7618 133.26 27.7618C133.93 27.7618 134.44 27.5768 134.79 27.2068C135.15 26.8368 135.385 26.3468 135.495 25.7368C135.615 25.1268 135.675 24.3718 135.675 23.4718ZM138.739 19.4068V18.1618H141.559V29.0068H140.179V19.4068H138.739ZM144.103 23.4718C144.103 21.7518 144.383 20.4118 144.943 19.4518C145.503 18.4818 146.483 17.9968 147.883 17.9968C149.273 17.9968 150.248 18.4818 150.808 19.4518C151.368 20.4118 151.648 21.7518 151.648 23.4718C151.648 25.2218 151.368 26.5818 150.808 27.5518C150.248 28.5218 149.273 29.0068 147.883 29.0068C146.483 29.0068 145.503 28.5218 144.943 27.5518C144.383 26.5818 144.103 25.2218 144.103 23.4718ZM150.298 23.4718C150.298 22.6018 150.238 21.8668 150.118 21.2668C150.008 20.6568 149.773 20.1668 149.413 19.7968C149.063 19.4268 148.553 19.2418 147.883 19.2418C147.203 19.2418 146.683 19.4268 146.323 19.7968C145.973 20.1668 145.738 20.6568 145.618 21.2668C145.508 21.8668 145.453 22.6018 145.453 23.4718C145.453 24.3718 145.508 25.1268 145.618 25.7368C145.738 26.3468 145.973 26.8368 146.323 27.2068C146.683 27.5768 147.203 27.7618 147.883 27.7618C148.553 27.7618 149.063 27.5768 149.413 27.2068C149.773 26.8368 150.008 26.3468 150.118 25.7368C150.238 25.1268 150.298 24.3718 150.298 23.4718ZM155.702 23.3668C155.142 23.1468 154.712 22.8268 154.412 22.4068C154.112 21.9868 153.962 21.4768 153.962 20.8768C153.962 20.3368 154.097 19.8518 154.367 19.4218C154.637 18.9818 155.037 18.6368 155.567 18.3868C156.107 18.1268 156.757 17.9968 157.517 17.9968C158.277 17.9968 158.922 18.1268 159.452 18.3868C159.992 18.6368 160.397 18.9818 160.667 19.4218C160.947 19.8518 161.087 20.3368 161.087 20.8768C161.087 21.4568 160.932 21.9668 160.622 22.4068C160.312 22.8368 159.887 23.1568 159.347 23.3668C159.967 23.5568 160.457 23.8918 160.817 24.3718C161.187 24.8418 161.372 25.4118 161.372 26.0818C161.372 26.7318 161.212 27.3018 160.892 27.7918C160.572 28.2718 160.117 28.6468 159.527 28.9168C158.947 29.1768 158.277 29.3068 157.517 29.3068C156.757 29.3068 156.087 29.1768 155.507 28.9168C154.937 28.6468 154.492 28.2718 154.172 27.7918C153.852 27.3018 153.692 26.7318 153.692 26.0818C153.692 25.4118 153.872 24.8368 154.232 24.3568C154.592 23.8768 155.082 23.5468 155.702 23.3668ZM159.767 21.0418C159.767 20.4318 159.567 19.9618 159.167 19.6318C158.767 19.3018 158.217 19.1368 157.517 19.1368C156.827 19.1368 156.282 19.3018 155.882 19.6318C155.482 19.9618 155.282 20.4368 155.282 21.0568C155.282 21.6168 155.487 22.0668 155.897 22.4068C156.317 22.7468 156.857 22.9168 157.517 22.9168C158.187 22.9168 158.727 22.7468 159.137 22.4068C159.557 22.0568 159.767 21.6018 159.767 21.0418ZM157.517 23.9668C156.777 23.9668 156.172 24.1418 155.702 24.4918C155.232 24.8318 154.997 25.3468 154.997 26.0368C154.997 26.6768 155.222 27.1918 155.672 27.5818C156.132 27.9718 156.747 28.1668 157.517 28.1668C158.287 28.1668 158.897 27.9718 159.347 27.5818C159.797 27.1918 160.022 26.6768 160.022 26.0368C160.022 25.3668 159.792 24.8568 159.332 24.5068C158.872 24.1468 158.267 23.9668 157.517 23.9668Z" fill="white"/>
</g>
<defs>
<clipPath id="clip0">
<rect width="172" height="47" fill="white" transform="translate(0.5 0.00683594)"/>
</clipPath>
</defs>
</svg>
