<svg width="172" height="81" viewBox="0 0 172 81" fill="none" xmlns="http://www.w3.org/2000/svg">
<g clip-path="url(#clip0)">
<path d="M37.645 30.1853C36.4202 30.7136 35.0873 31.0939 33.7144 31.242C35.1398 30.3952 36.2072 29.0574 36.7164 27.4795C35.3788 28.2752 33.9136 28.8332 32.3855 29.1286C31.7469 28.4459 30.9745 27.902 30.1165 27.5308C29.2585 27.1596 28.3332 26.9691 27.3983 26.9712C23.6159 26.9712 20.5739 30.0372 20.5739 33.7996C20.5739 34.328 20.6379 34.8563 20.742 35.3647C15.0783 35.0685 10.027 32.3627 6.66887 28.22C6.05697 29.2652 5.73632 30.4552 5.74026 31.6663C5.74026 34.0358 6.94505 36.1251 8.78224 37.3539C7.69955 37.3113 6.64222 37.0137 5.69624 36.4854V36.5694C5.69624 39.8876 8.04176 42.6374 11.1678 43.2698C10.5808 43.4222 9.97704 43.5002 9.37062 43.5019C8.92633 43.5019 8.50606 43.4579 8.08178 43.3979C8.94634 46.1036 11.464 48.0689 14.4619 48.1329C12.1164 49.9701 9.17849 51.0508 5.98843 51.0508C5.41605 51.0508 4.88771 51.0308 4.33936 50.9668C7.36532 52.908 10.9556 54.0288 14.8222 54.0288C27.3743 54.0288 34.2428 43.63 34.2428 34.6042C34.2428 34.308 34.2428 34.0118 34.2227 33.7156C35.5516 32.743 36.7164 31.5382 37.645 30.1853Z" fill="white"/>
<path d="M100.71 24.4897H71.2512C70.5427 24.4897 69.9703 25.0621 69.9703 25.7706V55.2297C69.9703 55.9382 70.5427 56.5105 71.2512 56.5105H100.71C101.419 56.5105 101.991 55.9382 101.991 55.2297V25.7706C101.991 25.0621 101.419 24.4897 100.71 24.4897ZM97.0119 33.8358H94.4542C92.4489 33.8358 92.0607 34.7884 92.0607 36.1893V39.2753H96.8478L96.2234 44.1065H92.0607V56.5105H87.0694V44.1105H82.8947V39.2753H87.0694V35.713C87.0694 31.5783 89.5951 29.3249 93.2855 29.3249C95.0546 29.3249 96.5716 29.457 97.0159 29.517V33.8358H97.0119Z" fill="white"/>
<path d="M165.698 24.4897H136.239C135.531 24.4897 134.958 25.0621 134.958 25.7706V55.2297C134.958 55.9382 135.531 56.5105 136.239 56.5105H165.698C166.407 56.5105 166.979 55.9382 166.979 55.2297V25.7706C166.979 25.0621 166.407 24.4897 165.698 24.4897ZM144.456 51.7755H139.705V36.4935H144.456V51.7755ZM142.083 34.4042C141.538 34.4042 141.006 34.2427 140.553 33.9401C140.1 33.6375 139.747 33.2074 139.539 32.7042C139.33 32.201 139.276 31.6473 139.382 31.1132C139.488 30.579 139.75 30.0883 140.136 29.7032C140.521 29.318 141.011 29.0558 141.546 28.9495C142.08 28.8433 142.633 28.8978 143.137 29.1062C143.64 29.3147 144.07 29.6676 144.372 30.1205C144.675 30.5733 144.837 31.1057 144.837 31.6504C144.833 33.1714 143.6 34.4042 142.083 34.4042ZM162.244 51.7755H157.497V44.3426C157.497 42.5695 157.465 40.292 155.027 40.292C152.558 40.292 152.177 42.2213 152.177 44.2145V51.7755H147.434V36.4935H151.989V38.5829H152.053C152.686 37.3821 154.235 36.1133 156.548 36.1133C161.359 36.1133 162.244 39.2793 162.244 43.394V51.7755Z" fill="white"/>
</g>
<defs>
<clipPath id="clip0">
<rect width="170.96" height="80.9866" fill="white" transform="translate(0.5 0.00683594)"/>
</clipPath>
</defs>
</svg>
