<svg width="312" height="195" viewBox="0 0 312 195" fill="none" xmlns="http://www.w3.org/2000/svg">
<g clip-path="url(#clip0)">
<g clip-path="url(#clip1)">
<path d="M23.5 27.3402C27.7282 27.3402 31.1667 23.9017 31.1667 19.6735C31.1667 15.4453 27.7282 12.0068 23.5 12.0068C19.2719 12.0068 15.8334 15.4453 15.8334 19.6735C15.8334 23.9017 19.2719 27.3402 23.5 27.3402ZM23.5 15.8402C25.6141 15.8402 27.3334 17.5594 27.3334 19.6735C27.3334 21.7876 25.6141 23.5068 23.5 23.5068C21.386 23.5068 19.6667 21.7876 19.6667 19.6735C19.6667 17.5594 21.386 15.8402 23.5 15.8402Z" fill="white"/>
<path d="M22.3885 42.3172C22.7129 42.5488 23.1015 42.6734 23.5001 42.6734C23.8987 42.6734 24.2874 42.5488 24.6118 42.3172C25.1945 41.9051 38.889 32.017 38.8335 19.6737C38.8335 11.2192 31.9545 4.34033 23.5001 4.34033C15.0457 4.34033 8.16679 11.2192 8.16679 19.6641C8.11121 32.017 21.8058 41.9051 22.3885 42.3172ZM23.5001 8.17367C29.8424 8.17367 35.0001 13.3314 35.0001 19.6832C35.0404 28.1894 26.5898 35.8273 23.5001 38.3324C20.4124 35.8254 11.9599 28.1856 12.0001 19.6737C12.0001 13.3314 17.1579 8.17367 23.5001 8.17367Z" fill="white"/>
<path d="M64.105 19.2268L59.935 29.0068H58.555L62.785 19.3618H56.995V18.1918H64.105V19.2268ZM65.4885 26.5918V25.5568L70.7535 18.2668H72.3885V25.4068H73.8885V26.5918H72.3885V29.0068H71.0385V26.5918H65.4885ZM71.0985 19.6918L67.0635 25.4068H71.0985V19.6918ZM77.4321 23.3668C76.8721 23.1468 76.4421 22.8268 76.1421 22.4068C75.8421 21.9868 75.6921 21.4768 75.6921 20.8768C75.6921 20.3368 75.8271 19.8518 76.0971 19.4218C76.3671 18.9818 76.7671 18.6368 77.2971 18.3868C77.8371 18.1268 78.4871 17.9968 79.2471 17.9968C80.0071 17.9968 80.6521 18.1268 81.1821 18.3868C81.7221 18.6368 82.1271 18.9818 82.3971 19.4218C82.6771 19.8518 82.8171 20.3368 82.8171 20.8768C82.8171 21.4568 82.6621 21.9668 82.3521 22.4068C82.0421 22.8368 81.6171 23.1568 81.0771 23.3668C81.6971 23.5568 82.1871 23.8918 82.5471 24.3718C82.9171 24.8418 83.1021 25.4118 83.1021 26.0818C83.1021 26.7318 82.9421 27.3018 82.6221 27.7918C82.3021 28.2718 81.8471 28.6468 81.2571 28.9168C80.6771 29.1768 80.0071 29.3068 79.2471 29.3068C78.4871 29.3068 77.8171 29.1768 77.2371 28.9168C76.6671 28.6468 76.2221 28.2718 75.9021 27.7918C75.5821 27.3018 75.4221 26.7318 75.4221 26.0818C75.4221 25.4118 75.6021 24.8368 75.9621 24.3568C76.3221 23.8768 76.8121 23.5468 77.4321 23.3668ZM81.4971 21.0418C81.4971 20.4318 81.2971 19.9618 80.8971 19.6318C80.4971 19.3018 79.9471 19.1368 79.2471 19.1368C78.5571 19.1368 78.0121 19.3018 77.6121 19.6318C77.2121 19.9618 77.0121 20.4368 77.0121 21.0568C77.0121 21.6168 77.2171 22.0668 77.6271 22.4068C78.0471 22.7468 78.5871 22.9168 79.2471 22.9168C79.9171 22.9168 80.4571 22.7468 80.8671 22.4068C81.2871 22.0568 81.4971 21.6018 81.4971 21.0418ZM79.2471 23.9668C78.5071 23.9668 77.9021 24.1418 77.4321 24.4918C76.9621 24.8318 76.7271 25.3468 76.7271 26.0368C76.7271 26.6768 76.9521 27.1918 77.4021 27.5818C77.8621 27.9718 78.4771 28.1668 79.2471 28.1668C80.0171 28.1668 80.6271 27.9718 81.0771 27.5818C81.5271 27.1918 81.7521 26.6768 81.7521 26.0368C81.7521 25.3668 81.5221 24.8568 81.0621 24.5068C80.6021 24.1468 79.9971 23.9668 79.2471 23.9668ZM85.115 23.4718C85.115 21.7518 85.395 20.4118 85.955 19.4518C86.515 18.4818 87.495 17.9968 88.895 17.9968C90.285 17.9968 91.26 18.4818 91.82 19.4518C92.38 20.4118 92.66 21.7518 92.66 23.4718C92.66 25.2218 92.38 26.5818 91.82 27.5518C91.26 28.5218 90.285 29.0068 88.895 29.0068C87.495 29.0068 86.515 28.5218 85.955 27.5518C85.395 26.5818 85.115 25.2218 85.115 23.4718ZM91.31 23.4718C91.31 22.6018 91.25 21.8668 91.13 21.2668C91.02 20.6568 90.785 20.1668 90.425 19.7968C90.075 19.4268 89.565 19.2418 88.895 19.2418C88.215 19.2418 87.695 19.4268 87.335 19.7968C86.985 20.1668 86.75 20.6568 86.63 21.2668C86.52 21.8668 86.465 22.6018 86.465 23.4718C86.465 24.3718 86.52 25.1268 86.63 25.7368C86.75 26.3468 86.985 26.8368 87.335 27.2068C87.695 27.5768 88.215 27.7618 88.895 27.7618C89.565 27.7618 90.075 27.5768 90.425 27.2068C90.785 26.8368 91.02 26.3468 91.13 25.7368C91.25 25.1268 91.31 24.3718 91.31 23.4718ZM109.763 18.6268V29.0068H108.398V21.2668L104.948 29.0068H103.988L100.523 21.2518V29.0068H99.1579V18.6268H100.628L104.468 27.2068L108.308 18.6268H109.763ZM115.863 29.1418C115.093 29.1418 114.393 28.9668 113.763 28.6168C113.143 28.2668 112.653 27.7718 112.293 27.1318C111.943 26.4818 111.768 25.7318 111.768 24.8818C111.768 24.0418 111.948 23.3018 112.308 22.6618C112.678 22.0118 113.178 21.5168 113.808 21.1768C114.438 20.8268 115.143 20.6518 115.923 20.6518C116.703 20.6518 117.408 20.8268 118.038 21.1768C118.668 21.5168 119.163 22.0068 119.523 22.6468C119.893 23.2868 120.078 24.0318 120.078 24.8818C120.078 25.7318 119.888 26.4818 119.508 27.1318C119.138 27.7718 118.633 28.2668 117.993 28.6168C117.353 28.9668 116.643 29.1418 115.863 29.1418ZM115.863 27.9418C116.353 27.9418 116.813 27.8268 117.243 27.5968C117.673 27.3668 118.018 27.0218 118.278 26.5618C118.548 26.1018 118.683 25.5418 118.683 24.8818C118.683 24.2218 118.553 23.6618 118.293 23.2018C118.033 22.7418 117.693 22.4018 117.273 22.1818C116.853 21.9518 116.398 21.8368 115.908 21.8368C115.408 21.8368 114.948 21.9518 114.528 22.1818C114.118 22.4018 113.788 22.7418 113.538 23.2018C113.288 23.6618 113.163 24.2218 113.163 24.8818C113.163 25.5518 113.283 26.1168 113.523 26.5768C113.773 27.0368 114.103 27.3818 114.513 27.6118C114.923 27.8318 115.373 27.9418 115.863 27.9418ZM121.563 24.8818C121.563 24.0318 121.733 23.2918 122.073 22.6618C122.413 22.0218 122.883 21.5268 123.483 21.1768C124.093 20.8268 124.788 20.6518 125.568 20.6518C126.578 20.6518 127.408 20.8968 128.058 21.3868C128.718 21.8768 129.153 22.5568 129.363 23.4268H127.893C127.753 22.9268 127.478 22.5318 127.068 22.2418C126.668 21.9518 126.168 21.8068 125.568 21.8068C124.788 21.8068 124.158 22.0768 123.678 22.6168C123.198 23.1468 122.958 23.9018 122.958 24.8818C122.958 25.8718 123.198 26.6368 123.678 27.1768C124.158 27.7168 124.788 27.9868 125.568 27.9868C126.168 27.9868 126.668 27.8468 127.068 27.5668C127.468 27.2868 127.743 26.8868 127.893 26.3668H129.363C129.143 27.2068 128.703 27.8818 128.043 28.3918C127.383 28.8918 126.558 29.1418 125.568 29.1418C124.788 29.1418 124.093 28.9668 123.483 28.6168C122.883 28.2668 122.413 27.7718 122.073 27.1318C121.733 26.4918 121.563 25.7418 121.563 24.8818ZM135.974 29.0068L132.749 25.3768V29.0068H131.384V17.9068H132.749V24.4318L135.914 20.7868H137.819L133.949 24.8818L137.834 29.0068H135.974ZM140.009 19.4518C139.749 19.4518 139.529 19.3618 139.349 19.1818C139.169 19.0018 139.079 18.7818 139.079 18.5218C139.079 18.2618 139.169 18.0418 139.349 17.8618C139.529 17.6818 139.749 17.5918 140.009 17.5918C140.259 17.5918 140.469 17.6818 140.639 17.8618C140.819 18.0418 140.909 18.2618 140.909 18.5218C140.909 18.7818 140.819 19.0018 140.639 19.1818C140.469 19.3618 140.259 19.4518 140.009 19.4518ZM140.669 20.7868V29.0068H139.304V20.7868H140.669ZM147.2 20.6368C148.2 20.6368 149.01 20.9418 149.63 21.5518C150.25 22.1518 150.56 23.0218 150.56 24.1618V29.0068H149.21V24.3568C149.21 23.5368 149.005 22.9118 148.595 22.4818C148.185 22.0418 147.625 21.8218 146.915 21.8218C146.195 21.8218 145.62 22.0468 145.19 22.4968C144.77 22.9468 144.56 23.6018 144.56 24.4618V29.0068H143.195V20.7868H144.56V21.9568C144.83 21.5368 145.195 21.2118 145.655 20.9818C146.125 20.7518 146.64 20.6368 147.2 20.6368ZM156.38 20.6518C157.09 20.6518 157.71 20.8068 158.24 21.1168C158.78 21.4268 159.18 21.8168 159.44 22.2868V20.7868H160.82V29.1868C160.82 29.9368 160.66 30.6018 160.34 31.1818C160.02 31.7718 159.56 32.2318 158.96 32.5618C158.37 32.8918 157.68 33.0568 156.89 33.0568C155.81 33.0568 154.91 32.8018 154.19 32.2918C153.47 31.7818 153.045 31.0868 152.915 30.2068H154.265C154.415 30.7068 154.725 31.1068 155.195 31.4068C155.665 31.7168 156.23 31.8718 156.89 31.8718C157.64 31.8718 158.25 31.6368 158.72 31.1668C159.2 30.6968 159.44 30.0368 159.44 29.1868V27.4618C159.17 27.9418 158.77 28.3418 158.24 28.6618C157.71 28.9818 157.09 29.1418 156.38 29.1418C155.65 29.1418 154.985 28.9618 154.385 28.6018C153.795 28.2418 153.33 27.7368 152.99 27.0868C152.65 26.4368 152.48 25.6968 152.48 24.8668C152.48 24.0268 152.65 23.2918 152.99 22.6618C153.33 22.0218 153.795 21.5268 154.385 21.1768C154.985 20.8268 155.65 20.6518 156.38 20.6518ZM159.44 24.8818C159.44 24.2618 159.315 23.7218 159.065 23.2618C158.815 22.8018 158.475 22.4518 158.045 22.2118C157.625 21.9618 157.16 21.8368 156.65 21.8368C156.14 21.8368 155.675 21.9568 155.255 22.1968C154.835 22.4368 154.5 22.7868 154.25 23.2468C154 23.7068 153.875 24.2468 153.875 24.8668C153.875 25.4968 154 26.0468 154.25 26.5168C154.5 26.9768 154.835 27.3318 155.255 27.5818C155.675 27.8218 156.14 27.9418 156.65 27.9418C157.16 27.9418 157.625 27.8218 158.045 27.5818C158.475 27.3318 158.815 26.9768 159.065 26.5168C159.315 26.0468 159.44 25.5018 159.44 24.8818ZM164.691 22.3168C164.971 21.8268 165.381 21.4268 165.921 21.1168C166.461 20.8068 167.076 20.6518 167.766 20.6518C168.506 20.6518 169.171 20.8268 169.761 21.1768C170.351 21.5268 170.816 22.0218 171.156 22.6618C171.496 23.2918 171.666 24.0268 171.666 24.8668C171.666 25.6968 171.496 26.4368 171.156 27.0868C170.816 27.7368 170.346 28.2418 169.746 28.6018C169.156 28.9618 168.496 29.1418 167.766 29.1418C167.056 29.1418 166.431 28.9868 165.891 28.6768C165.361 28.3668 164.961 27.9718 164.691 27.4918V29.0068H163.326V17.9068H164.691V22.3168ZM170.271 24.8668C170.271 24.2468 170.146 23.7068 169.896 23.2468C169.646 22.7868 169.306 22.4368 168.876 22.1968C168.456 21.9568 167.991 21.8368 167.481 21.8368C166.981 21.8368 166.516 21.9618 166.086 22.2118C165.666 22.4518 165.326 22.8068 165.066 23.2768C164.816 23.7368 164.691 24.2718 164.691 24.8818C164.691 25.5018 164.816 26.0468 165.066 26.5168C165.326 26.9768 165.666 27.3318 166.086 27.5818C166.516 27.8218 166.981 27.9418 167.481 27.9418C167.991 27.9418 168.456 27.8218 168.876 27.5818C169.306 27.3318 169.646 26.9768 169.896 26.5168C170.146 26.0468 170.271 25.4968 170.271 24.8668ZM174.368 19.4518C174.108 19.4518 173.888 19.3618 173.708 19.1818C173.528 19.0018 173.438 18.7818 173.438 18.5218C173.438 18.2618 173.528 18.0418 173.708 17.8618C173.888 17.6818 174.108 17.5918 174.368 17.5918C174.618 17.5918 174.828 17.6818 174.998 17.8618C175.178 18.0418 175.268 18.2618 175.268 18.5218C175.268 18.7818 175.178 19.0018 174.998 19.1818C174.828 19.3618 174.618 19.4518 174.368 19.4518ZM175.028 20.7868V29.0068H173.663V20.7868H175.028ZM178.92 22.1218C179.16 21.6518 179.5 21.2868 179.94 21.0268C180.39 20.7668 180.935 20.6368 181.575 20.6368V22.0468H181.215C179.685 22.0468 178.92 22.8768 178.92 24.5368V29.0068H177.555V20.7868H178.92V22.1218ZM182.84 24.8668C182.84 24.0268 183.01 23.2918 183.35 22.6618C183.69 22.0218 184.155 21.5268 184.745 21.1768C185.345 20.8268 186.015 20.6518 186.755 20.6518C187.395 20.6518 187.99 20.8018 188.54 21.1018C189.09 21.3918 189.51 21.7768 189.8 22.2568V17.9068H191.18V29.0068H189.8V27.4618C189.53 27.9518 189.13 28.3568 188.6 28.6768C188.07 28.9868 187.45 29.1418 186.74 29.1418C186.01 29.1418 185.345 28.9618 184.745 28.6018C184.155 28.2418 183.69 27.7368 183.35 27.0868C183.01 26.4368 182.84 25.6968 182.84 24.8668ZM189.8 24.8818C189.8 24.2618 189.675 23.7218 189.425 23.2618C189.175 22.8018 188.835 22.4518 188.405 22.2118C187.985 21.9618 187.52 21.8368 187.01 21.8368C186.5 21.8368 186.035 21.9568 185.615 22.1968C185.195 22.4368 184.86 22.7868 184.61 23.2468C184.36 23.7068 184.235 24.2468 184.235 24.8668C184.235 25.4968 184.36 26.0468 184.61 26.5168C184.86 26.9768 185.195 27.3318 185.615 27.5818C186.035 27.8218 186.5 27.9418 187.01 27.9418C187.52 27.9418 187.985 27.8218 188.405 27.5818C188.835 27.3318 189.175 26.9768 189.425 26.5168C189.675 26.0468 189.8 25.5018 189.8 24.8818ZM205.941 18.5518V29.0068H204.576V24.2668H199.251V29.0068H197.886V18.5518H199.251V23.1418H204.576V18.5518H205.941ZM209.177 19.4518C208.917 19.4518 208.697 19.3618 208.517 19.1818C208.337 19.0018 208.247 18.7818 208.247 18.5218C208.247 18.2618 208.337 18.0418 208.517 17.8618C208.697 17.6818 208.917 17.5918 209.177 17.5918C209.427 17.5918 209.637 17.6818 209.807 17.8618C209.987 18.0418 210.077 18.2618 210.077 18.5218C210.077 18.7818 209.987 19.0018 209.807 19.1818C209.637 19.3618 209.427 19.4518 209.177 19.4518ZM209.837 20.7868V29.0068H208.472V20.7868H209.837ZM213.728 17.9068V29.0068H212.363V17.9068H213.728ZM217.62 17.9068V29.0068H216.255V17.9068H217.62ZM231.635 20.7868V29.0068H230.27V27.7918C230.01 28.2118 229.645 28.5418 229.175 28.7818C228.715 29.0118 228.205 29.1268 227.645 29.1268C227.005 29.1268 226.43 28.9968 225.92 28.7368C225.41 28.4668 225.005 28.0668 224.705 27.5368C224.415 27.0068 224.27 26.3618 224.27 25.6018V20.7868H225.62V25.4218C225.62 26.2318 225.825 26.8568 226.235 27.2968C226.645 27.7268 227.205 27.9418 227.915 27.9418C228.645 27.9418 229.22 27.7168 229.64 27.2668C230.06 26.8168 230.27 26.1618 230.27 25.3018V20.7868H231.635ZM238.145 20.6368C239.145 20.6368 239.955 20.9418 240.575 21.5518C241.195 22.1518 241.505 23.0218 241.505 24.1618V29.0068H240.155V24.3568C240.155 23.5368 239.95 22.9118 239.54 22.4818C239.13 22.0418 238.57 21.8218 237.86 21.8218C237.14 21.8218 236.565 22.0468 236.135 22.4968C235.715 22.9468 235.505 23.6018 235.505 24.4618V29.0068H234.14V20.7868H235.505V21.9568C235.775 21.5368 236.14 21.2118 236.6 20.9818C237.07 20.7518 237.585 20.6368 238.145 20.6368ZM243.424 24.8668C243.424 24.0268 243.594 23.2918 243.934 22.6618C244.274 22.0218 244.739 21.5268 245.329 21.1768C245.929 20.8268 246.599 20.6518 247.339 20.6518C247.979 20.6518 248.574 20.8018 249.124 21.1018C249.674 21.3918 250.094 21.7768 250.384 22.2568V17.9068H251.764V29.0068H250.384V27.4618C250.114 27.9518 249.714 28.3568 249.184 28.6768C248.654 28.9868 248.034 29.1418 247.324 29.1418C246.594 29.1418 245.929 28.9618 245.329 28.6018C244.739 28.2418 244.274 27.7368 243.934 27.0868C243.594 26.4368 243.424 25.6968 243.424 24.8668ZM250.384 24.8818C250.384 24.2618 250.259 23.7218 250.009 23.2618C249.759 22.8018 249.419 22.4518 248.989 22.2118C248.569 21.9618 248.104 21.8368 247.594 21.8368C247.084 21.8368 246.619 21.9568 246.199 22.1968C245.779 22.4368 245.444 22.7868 245.194 23.2468C244.944 23.7068 244.819 24.2468 244.819 24.8668C244.819 25.4968 244.944 26.0468 245.194 26.5168C245.444 26.9768 245.779 27.3318 246.199 27.5818C246.619 27.8218 247.084 27.9418 247.594 27.9418C248.104 27.9418 248.569 27.8218 248.989 27.5818C249.419 27.3318 249.759 26.9768 250.009 26.5168C250.259 26.0468 250.384 25.5018 250.384 24.8818ZM261.771 24.5818C261.771 24.8418 261.756 25.1168 261.726 25.4068H255.156C255.206 26.2168 255.481 26.8518 255.981 27.3118C256.491 27.7618 257.106 27.9868 257.826 27.9868C258.416 27.9868 258.906 27.8518 259.296 27.5818C259.696 27.3018 259.976 26.9318 260.136 26.4718H261.606C261.386 27.2618 260.946 27.9068 260.286 28.4068C259.626 28.8968 258.806 29.1418 257.826 29.1418C257.046 29.1418 256.346 28.9668 255.726 28.6168C255.116 28.2668 254.636 27.7718 254.286 27.1318C253.936 26.4818 253.761 25.7318 253.761 24.8818C253.761 24.0318 253.931 23.2868 254.271 22.6468C254.611 22.0068 255.086 21.5168 255.696 21.1768C256.316 20.8268 257.026 20.6518 257.826 20.6518C258.606 20.6518 259.296 20.8218 259.896 21.1618C260.496 21.5018 260.956 21.9718 261.276 22.5718C261.606 23.1618 261.771 23.8318 261.771 24.5818ZM260.361 24.2968C260.361 23.7768 260.246 23.3318 260.016 22.9618C259.786 22.5818 259.471 22.2968 259.071 22.1068C258.681 21.9068 258.246 21.8068 257.766 21.8068C257.076 21.8068 256.486 22.0268 255.996 22.4668C255.516 22.9068 255.241 23.5168 255.171 24.2968H260.361ZM267.118 21.9118H265.393V29.0068H264.028V21.9118H262.963V20.7868H264.028V20.2018C264.028 19.2818 264.263 18.6118 264.733 18.1918C265.213 17.7618 265.978 17.5468 267.028 17.5468V18.6868C266.428 18.6868 266.003 18.8068 265.753 19.0468C265.513 19.2768 265.393 19.6618 265.393 20.2018V20.7868H267.118V21.9118ZM269.614 19.4518C269.354 19.4518 269.134 19.3618 268.954 19.1818C268.774 19.0018 268.684 18.7818 268.684 18.5218C268.684 18.2618 268.774 18.0418 268.954 17.8618C269.134 17.6818 269.354 17.5918 269.614 17.5918C269.864 17.5918 270.074 17.6818 270.244 17.8618C270.424 18.0418 270.514 18.2618 270.514 18.5218C270.514 18.7818 270.424 19.0018 270.244 19.1818C270.074 19.3618 269.864 19.4518 269.614 19.4518ZM270.274 20.7868V29.0068H268.909V20.7868H270.274ZM276.806 20.6368C277.806 20.6368 278.616 20.9418 279.236 21.5518C279.856 22.1518 280.166 23.0218 280.166 24.1618V29.0068H278.816V24.3568C278.816 23.5368 278.611 22.9118 278.201 22.4818C277.791 22.0418 277.231 21.8218 276.521 21.8218C275.801 21.8218 275.226 22.0468 274.796 22.4968C274.376 22.9468 274.166 23.6018 274.166 24.4618V29.0068H272.801V20.7868H274.166V21.9568C274.436 21.5368 274.801 21.2118 275.261 20.9818C275.731 20.7518 276.246 20.6368 276.806 20.6368ZM290.096 24.5818C290.096 24.8418 290.081 25.1168 290.051 25.4068H283.481C283.531 26.2168 283.806 26.8518 284.306 27.3118C284.816 27.7618 285.431 27.9868 286.151 27.9868C286.741 27.9868 287.231 27.8518 287.621 27.5818C288.021 27.3018 288.301 26.9318 288.461 26.4718H289.931C289.711 27.2618 289.271 27.9068 288.611 28.4068C287.951 28.8968 287.131 29.1418 286.151 29.1418C285.371 29.1418 284.671 28.9668 284.051 28.6168C283.441 28.2668 282.961 27.7718 282.611 27.1318C282.261 26.4818 282.086 25.7318 282.086 24.8818C282.086 24.0318 282.256 23.2868 282.596 22.6468C282.936 22.0068 283.411 21.5168 284.021 21.1768C284.641 20.8268 285.351 20.6518 286.151 20.6518C286.931 20.6518 287.621 20.8218 288.221 21.1618C288.821 21.5018 289.281 21.9718 289.601 22.5718C289.931 23.1618 290.096 23.8318 290.096 24.5818ZM288.686 24.2968C288.686 23.7768 288.571 23.3318 288.341 22.9618C288.111 22.5818 287.796 22.2968 287.396 22.1068C287.006 21.9068 286.571 21.8068 286.091 21.8068C285.401 21.8068 284.811 22.0268 284.321 22.4668C283.841 22.9068 283.566 23.5168 283.496 24.2968H288.686ZM291.587 24.8668C291.587 24.0268 291.757 23.2918 292.097 22.6618C292.437 22.0218 292.902 21.5268 293.492 21.1768C294.092 20.8268 294.762 20.6518 295.502 20.6518C296.142 20.6518 296.737 20.8018 297.287 21.1018C297.837 21.3918 298.257 21.7768 298.547 22.2568V17.9068H299.927V29.0068H298.547V27.4618C298.277 27.9518 297.877 28.3568 297.347 28.6768C296.817 28.9868 296.197 29.1418 295.487 29.1418C294.757 29.1418 294.092 28.9618 293.492 28.6018C292.902 28.2418 292.437 27.7368 292.097 27.0868C291.757 26.4368 291.587 25.6968 291.587 24.8668ZM298.547 24.8818C298.547 24.2618 298.422 23.7218 298.172 23.2618C297.922 22.8018 297.582 22.4518 297.152 22.2118C296.732 21.9618 296.267 21.8368 295.757 21.8368C295.247 21.8368 294.782 21.9568 294.362 22.1968C293.942 22.4368 293.607 22.7868 293.357 23.2468C293.107 23.7068 292.982 24.2468 292.982 24.8668C292.982 25.4968 293.107 26.0468 293.357 26.5168C293.607 26.9768 293.942 27.3318 294.362 27.5818C294.782 27.8218 295.247 27.9418 295.757 27.9418C296.267 27.9418 296.732 27.8218 297.152 27.5818C297.582 27.3318 297.922 26.9768 298.172 26.5168C298.422 26.0468 298.547 25.5018 298.547 24.8818Z" fill="white"/>
</g>
<g clip-path="url(#clip2)">
<path d="M23.8333 64.4653H12.1666C9.74579 64.4653 7.79163 66.4195 7.79163 68.8403V92.1737C7.79163 94.5945 9.74579 96.5487 12.1666 96.5487H23.8333C26.2541 96.5487 28.2083 94.5945 28.2083 92.1737V68.8403C28.2083 66.4195 26.2541 64.4653 23.8333 64.4653ZM20.9166 93.632H15.0833V92.1737H20.9166V93.632ZM25.6562 89.257H10.3437V68.8403H25.6562V89.257Z" fill="white"/>
<path d="M50.165 88.7968C49.205 87.8568 48.455 86.6618 47.915 85.2118C47.385 83.7618 47.12 82.1968 47.12 80.5168C47.12 78.7968 47.4 77.1918 47.96 75.7018C48.53 74.2018 49.34 72.9668 50.39 71.9968H51.815V72.1318C50.695 73.1818 49.85 74.4468 49.28 75.9268C48.72 77.3968 48.44 78.9268 48.44 80.5168C48.44 82.0668 48.705 83.5468 49.235 84.9568C49.775 86.3668 50.56 87.6018 51.59 88.6618V88.7968H50.165ZM53.2765 84.9118C54.5465 83.8918 55.5415 83.0568 56.2615 82.4068C56.9815 81.7468 57.5865 81.0618 58.0765 80.3518C58.5765 79.6318 58.8265 78.9268 58.8265 78.2368C58.8265 77.5868 58.6665 77.0768 58.3465 76.7068C58.0365 76.3268 57.5315 76.1368 56.8315 76.1368C56.1515 76.1368 55.6215 76.3518 55.2415 76.7818C54.8715 77.2018 54.6715 77.7668 54.6415 78.4768H53.3215C53.3615 77.3568 53.7015 76.4918 54.3415 75.8818C54.9815 75.2718 55.8065 74.9668 56.8165 74.9668C57.8465 74.9668 58.6615 75.2518 59.2615 75.8218C59.8715 76.3918 60.1765 77.1768 60.1765 78.1768C60.1765 79.0068 59.9265 79.8168 59.4265 80.6068C58.9365 81.3868 58.3765 82.0768 57.7465 82.6768C57.1165 83.2668 56.3115 83.9568 55.3315 84.7468H60.4915V85.8868H53.2765V84.9118ZM62.2395 77.8918C62.3095 76.9718 62.6645 76.2518 63.3045 75.7318C63.9445 75.2118 64.7745 74.9518 65.7945 74.9518C66.4745 74.9518 67.0595 75.0768 67.5495 75.3268C68.0495 75.5668 68.4245 75.8968 68.6745 76.3168C68.9345 76.7368 69.0645 77.2118 69.0645 77.7418C69.0645 78.3618 68.8845 78.8968 68.5245 79.3468C68.1745 79.7968 67.7145 80.0868 67.1445 80.2168V80.2918C67.7945 80.4518 68.3095 80.7668 68.6895 81.2368C69.0695 81.7068 69.2595 82.3218 69.2595 83.0818C69.2595 83.6518 69.1295 84.1668 68.8695 84.6268C68.6095 85.0768 68.2195 85.4318 67.6995 85.6918C67.1795 85.9518 66.5545 86.0818 65.8245 86.0818C64.7645 86.0818 63.8945 85.8068 63.2145 85.2568C62.5345 84.6968 62.1545 83.9068 62.0745 82.8868H63.3945C63.4645 83.4868 63.7095 83.9768 64.1295 84.3568C64.5495 84.7368 65.1095 84.9268 65.8095 84.9268C66.5095 84.9268 67.0395 84.7468 67.3995 84.3868C67.7695 84.0168 67.9545 83.5418 67.9545 82.9618C67.9545 82.2118 67.7045 81.6718 67.2045 81.3418C66.7045 81.0118 65.9495 80.8468 64.9395 80.8468H64.5945V79.7068H64.9545C65.8745 79.6968 66.5695 79.5468 67.0395 79.2568C67.5095 78.9568 67.7445 78.4968 67.7445 77.8768C67.7445 77.3468 67.5695 76.9218 67.2195 76.6018C66.8795 76.2818 66.3895 76.1218 65.7495 76.1218C65.1295 76.1218 64.6295 76.2818 64.2495 76.6018C63.8695 76.9218 63.6445 77.3518 63.5745 77.8918H62.2395ZM73.0575 83.0968C73.1575 83.6668 73.3875 84.1068 73.7475 84.4168C74.1175 84.7268 74.6125 84.8818 75.2325 84.8818C76.0625 84.8818 76.6725 84.5568 77.0625 83.9068C77.4625 83.2568 77.6525 82.1618 77.6325 80.6218C77.4225 81.0718 77.0725 81.4268 76.5825 81.6868C76.0925 81.9368 75.5475 82.0618 74.9475 82.0618C74.2775 82.0618 73.6775 81.9268 73.1475 81.6568C72.6275 81.3768 72.2175 80.9718 71.9175 80.4418C71.6175 79.9118 71.4675 79.2718 71.4675 78.5218C71.4675 77.4518 71.7775 76.5918 72.3975 75.9418C73.0175 75.2818 73.8975 74.9518 75.0375 74.9518C76.4375 74.9518 77.4175 75.4068 77.9775 76.3168C78.5475 77.2268 78.8325 78.5818 78.8325 80.3818C78.8325 81.6418 78.7175 82.6818 78.4875 83.5018C78.2675 84.3218 77.8875 84.9468 77.3475 85.3768C76.8175 85.8068 76.0875 86.0218 75.1575 86.0218C74.1375 86.0218 73.3425 85.7468 72.7725 85.1968C72.2025 84.6468 71.8775 83.9468 71.7975 83.0968H73.0575ZM75.1725 80.9068C75.8425 80.9068 76.3925 80.7018 76.8225 80.2918C77.2525 79.8718 77.4675 79.3068 77.4675 78.5968C77.4675 77.8468 77.2575 77.2418 76.8375 76.7818C76.4175 76.3218 75.8275 76.0918 75.0675 76.0918C74.3675 76.0918 73.8075 76.3118 73.3875 76.7518C72.9775 77.1918 72.7725 77.7718 72.7725 78.4918C72.7725 79.2218 72.9775 79.8068 73.3875 80.2468C73.7975 80.6868 74.3925 80.9068 75.1725 80.9068ZM80.7407 88.7968V88.6618C81.7707 87.6018 82.5507 86.3668 83.0807 84.9568C83.6207 83.5468 83.8907 82.0668 83.8907 80.5168C83.8907 78.9268 83.6057 77.3968 83.0357 75.9268C82.4757 74.4468 81.6357 73.1818 80.5157 72.1318V71.9968H81.9407C82.9907 72.9668 83.7957 74.2018 84.3557 75.7018C84.9257 77.1918 85.2107 78.7968 85.2107 80.5168C85.2107 82.1968 84.9407 83.7618 84.4007 85.2118C83.8707 86.6618 83.1257 87.8568 82.1657 88.7968H80.7407ZM99.0763 76.3468H93.8113V79.7668C94.0413 79.4468 94.3813 79.1868 94.8313 78.9868C95.2813 78.7768 95.7663 78.6718 96.2863 78.6718C97.1163 78.6718 97.7913 78.8468 98.3113 79.1968C98.8313 79.5368 99.2013 79.9818 99.4213 80.5318C99.6513 81.0718 99.7663 81.6468 99.7663 82.2568C99.7663 82.9768 99.6313 83.6218 99.3613 84.1918C99.0913 84.7618 98.6763 85.2118 98.1163 85.5418C97.5663 85.8718 96.8813 86.0368 96.0613 86.0368C95.0113 86.0368 94.1613 85.7668 93.5113 85.2268C92.8613 84.6868 92.4663 83.9668 92.3263 83.0668H93.6613C93.7913 83.6368 94.0663 84.0818 94.4863 84.4018C94.9063 84.7218 95.4363 84.8818 96.0763 84.8818C96.8663 84.8818 97.4613 84.6468 97.8613 84.1768C98.2613 83.6968 98.4613 83.0668 98.4613 82.2868C98.4613 81.5068 98.2613 80.9068 97.8613 80.4868C97.4613 80.0568 96.8713 79.8418 96.0913 79.8418C95.5613 79.8418 95.0963 79.9718 94.6963 80.2318C94.3063 80.4818 94.0213 80.8268 93.8413 81.2668H92.5513V75.1468H99.0763V76.3468ZM108.695 76.3468H103.43V79.7668C103.66 79.4468 104 79.1868 104.45 78.9868C104.9 78.7768 105.385 78.6718 105.905 78.6718C106.735 78.6718 107.41 78.8468 107.93 79.1968C108.45 79.5368 108.82 79.9818 109.04 80.5318C109.27 81.0718 109.385 81.6468 109.385 82.2568C109.385 82.9768 109.25 83.6218 108.98 84.1918C108.71 84.7618 108.295 85.2118 107.735 85.5418C107.185 85.8718 106.5 86.0368 105.68 86.0368C104.63 86.0368 103.78 85.7668 103.13 85.2268C102.48 84.6868 102.085 83.9668 101.945 83.0668H103.28C103.41 83.6368 103.685 84.0818 104.105 84.4018C104.525 84.7218 105.055 84.8818 105.695 84.8818C106.485 84.8818 107.08 84.6468 107.48 84.1768C107.88 83.6968 108.08 83.0668 108.08 82.2868C108.08 81.5068 107.88 80.9068 107.48 80.4868C107.08 80.0568 106.49 79.8418 105.71 79.8418C105.18 79.8418 104.715 79.9718 104.315 80.2318C103.925 80.4818 103.64 80.8268 103.46 81.2668H102.17V75.1468H108.695V76.3468ZM118.314 76.3468H113.049V79.7668C113.279 79.4468 113.619 79.1868 114.069 78.9868C114.519 78.7768 115.004 78.6718 115.524 78.6718C116.354 78.6718 117.029 78.8468 117.549 79.1968C118.069 79.5368 118.439 79.9818 118.659 80.5318C118.889 81.0718 119.004 81.6468 119.004 82.2568C119.004 82.9768 118.869 83.6218 118.599 84.1918C118.329 84.7618 117.914 85.2118 117.354 85.5418C116.804 85.8718 116.119 86.0368 115.299 86.0368C114.249 86.0368 113.399 85.7668 112.749 85.2268C112.099 84.6868 111.704 83.9668 111.564 83.0668H112.899C113.029 83.6368 113.304 84.0818 113.724 84.4018C114.144 84.7218 114.674 84.8818 115.314 84.8818C116.104 84.8818 116.699 84.6468 117.099 84.1768C117.499 83.6968 117.699 83.0668 117.699 82.2868C117.699 81.5068 117.499 80.9068 117.099 80.4868C116.699 80.0568 116.109 79.8418 115.329 79.8418C114.799 79.8418 114.334 79.9718 113.934 80.2318C113.544 80.4818 113.259 80.8268 113.079 81.2668H111.789V75.1468H118.314V76.3468ZM126.943 79.9318V81.0868H120.958V79.9318H126.943ZM129.48 80.4718C129.48 78.7518 129.76 77.4118 130.32 76.4518C130.88 75.4818 131.86 74.9968 133.26 74.9968C134.65 74.9968 135.625 75.4818 136.185 76.4518C136.745 77.4118 137.025 78.7518 137.025 80.4718C137.025 82.2218 136.745 83.5818 136.185 84.5518C135.625 85.5218 134.65 86.0068 133.26 86.0068C131.86 86.0068 130.88 85.5218 130.32 84.5518C129.76 83.5818 129.48 82.2218 129.48 80.4718ZM135.675 80.4718C135.675 79.6018 135.615 78.8668 135.495 78.2668C135.385 77.6568 135.15 77.1668 134.79 76.7968C134.44 76.4268 133.93 76.2418 133.26 76.2418C132.58 76.2418 132.06 76.4268 131.7 76.7968C131.35 77.1668 131.115 77.6568 130.995 78.2668C130.885 78.8668 130.83 79.6018 130.83 80.4718C130.83 81.3718 130.885 82.1268 130.995 82.7368C131.115 83.3468 131.35 83.8368 131.7 84.2068C132.06 84.5768 132.58 84.7618 133.26 84.7618C133.93 84.7618 134.44 84.5768 134.79 84.2068C135.15 83.8368 135.385 83.3468 135.495 82.7368C135.615 82.1268 135.675 81.3718 135.675 80.4718ZM138.739 76.4068V75.1618H141.559V86.0068H140.179V76.4068H138.739ZM144.103 80.4718C144.103 78.7518 144.383 77.4118 144.943 76.4518C145.503 75.4818 146.483 74.9968 147.883 74.9968C149.273 74.9968 150.248 75.4818 150.808 76.4518C151.368 77.4118 151.648 78.7518 151.648 80.4718C151.648 82.2218 151.368 83.5818 150.808 84.5518C150.248 85.5218 149.273 86.0068 147.883 86.0068C146.483 86.0068 145.503 85.5218 144.943 84.5518C144.383 83.5818 144.103 82.2218 144.103 80.4718ZM150.298 80.4718C150.298 79.6018 150.238 78.8668 150.118 78.2668C150.008 77.6568 149.773 77.1668 149.413 76.7968C149.063 76.4268 148.553 76.2418 147.883 76.2418C147.203 76.2418 146.683 76.4268 146.323 76.7968C145.973 77.1668 145.738 77.6568 145.618 78.2668C145.508 78.8668 145.453 79.6018 145.453 80.4718C145.453 81.3718 145.508 82.1268 145.618 82.7368C145.738 83.3468 145.973 83.8368 146.323 84.2068C146.683 84.5768 147.203 84.7618 147.883 84.7618C148.553 84.7618 149.063 84.5768 149.413 84.2068C149.773 83.8368 150.008 83.3468 150.118 82.7368C150.238 82.1268 150.298 81.3718 150.298 80.4718ZM155.702 80.3668C155.142 80.1468 154.712 79.8268 154.412 79.4068C154.112 78.9868 153.962 78.4768 153.962 77.8768C153.962 77.3368 154.097 76.8518 154.367 76.4218C154.637 75.9818 155.037 75.6368 155.567 75.3868C156.107 75.1268 156.757 74.9968 157.517 74.9968C158.277 74.9968 158.922 75.1268 159.452 75.3868C159.992 75.6368 160.397 75.9818 160.667 76.4218C160.947 76.8518 161.087 77.3368 161.087 77.8768C161.087 78.4568 160.932 78.9668 160.622 79.4068C160.312 79.8368 159.887 80.1568 159.347 80.3668C159.967 80.5568 160.457 80.8918 160.817 81.3718C161.187 81.8418 161.372 82.4118 161.372 83.0818C161.372 83.7318 161.212 84.3018 160.892 84.7918C160.572 85.2718 160.117 85.6468 159.527 85.9168C158.947 86.1768 158.277 86.3068 157.517 86.3068C156.757 86.3068 156.087 86.1768 155.507 85.9168C154.937 85.6468 154.492 85.2718 154.172 84.7918C153.852 84.3018 153.692 83.7318 153.692 83.0818C153.692 82.4118 153.872 81.8368 154.232 81.3568C154.592 80.8768 155.082 80.5468 155.702 80.3668ZM159.767 78.0418C159.767 77.4318 159.567 76.9618 159.167 76.6318C158.767 76.3018 158.217 76.1368 157.517 76.1368C156.827 76.1368 156.282 76.3018 155.882 76.6318C155.482 76.9618 155.282 77.4368 155.282 78.0568C155.282 78.6168 155.487 79.0668 155.897 79.4068C156.317 79.7468 156.857 79.9168 157.517 79.9168C158.187 79.9168 158.727 79.7468 159.137 79.4068C159.557 79.0568 159.767 78.6018 159.767 78.0418ZM157.517 80.9668C156.777 80.9668 156.172 81.1418 155.702 81.4918C155.232 81.8318 154.997 82.3468 154.997 83.0368C154.997 83.6768 155.222 84.1918 155.672 84.5818C156.132 84.9718 156.747 85.1668 157.517 85.1668C158.287 85.1668 158.897 84.9718 159.347 84.5818C159.797 84.1918 160.022 83.6768 160.022 83.0368C160.022 82.3668 159.792 81.8568 159.332 81.5068C158.872 81.1468 158.267 80.9668 157.517 80.9668Z" fill="white"/>
</g>
<g clip-path="url(#clip3)">
<path d="M37.645 144.185C36.4202 144.714 35.0873 145.094 33.7144 145.242C35.1398 144.395 36.2072 143.057 36.7164 141.48C35.3788 142.275 33.9136 142.833 32.3855 143.129C31.7469 142.446 30.9745 141.902 30.1165 141.531C29.2585 141.16 28.3332 140.969 27.3983 140.971C23.6159 140.971 20.5739 144.037 20.5739 147.8C20.5739 148.328 20.6379 148.856 20.742 149.365C15.0783 149.068 10.027 146.363 6.66887 142.22C6.05697 143.265 5.73632 144.455 5.74026 145.666C5.74026 148.036 6.94505 150.125 8.78224 151.354C7.69955 151.311 6.64222 151.014 5.69624 150.485V150.569C5.69624 153.888 8.04176 156.637 11.1678 157.27C10.5808 157.422 9.97704 157.5 9.37062 157.502C8.92633 157.502 8.50606 157.458 8.08178 157.398C8.94634 160.104 11.464 162.069 14.4619 162.133C12.1164 163.97 9.17849 165.051 5.98843 165.051C5.41605 165.051 4.88771 165.031 4.33936 164.967C7.36532 166.908 10.9556 168.029 14.8222 168.029C27.3743 168.029 34.2428 157.63 34.2428 148.604C34.2428 148.308 34.2428 148.012 34.2227 147.716C35.5516 146.743 36.7164 145.538 37.645 144.185Z" fill="white"/>
<path d="M100.71 138.49H71.2512C70.5427 138.49 69.9703 139.062 69.9703 139.771V169.23C69.9703 169.938 70.5427 170.511 71.2512 170.511H100.71C101.419 170.511 101.991 169.938 101.991 169.23V139.771C101.991 139.062 101.419 138.49 100.71 138.49ZM97.0119 147.836H94.4542C92.4489 147.836 92.0607 148.788 92.0607 150.189V153.275H96.8478L96.2234 158.106H92.0607V170.511H87.0694V158.11H82.8947V153.275H87.0694V149.713C87.0694 145.578 89.5951 143.325 93.2855 143.325C95.0546 143.325 96.5716 143.457 97.0159 143.517V147.836H97.0119Z" fill="white"/>
<path d="M165.698 138.49H136.239C135.531 138.49 134.958 139.062 134.958 139.771V169.23C134.958 169.938 135.531 170.511 136.239 170.511H165.698C166.407 170.511 166.979 169.938 166.979 169.23V139.771C166.979 139.062 166.407 138.49 165.698 138.49ZM144.456 165.775H139.705V150.494H144.456V165.775ZM142.083 148.404C141.538 148.404 141.006 148.243 140.553 147.94C140.1 147.637 139.747 147.207 139.539 146.704C139.33 146.201 139.276 145.647 139.382 145.113C139.488 144.579 139.75 144.088 140.136 143.703C140.521 143.318 141.011 143.056 141.546 142.95C142.08 142.843 142.633 142.898 143.137 143.106C143.64 143.315 144.07 143.668 144.372 144.12C144.675 144.573 144.837 145.106 144.837 145.65C144.833 147.171 143.6 148.404 142.083 148.404ZM162.244 165.775H157.497V158.343C157.497 156.569 157.465 154.292 155.027 154.292C152.558 154.292 152.177 156.221 152.177 158.215V165.775H147.434V150.494H151.989V152.583H152.053C152.686 151.382 154.235 150.113 156.548 150.113C161.359 150.113 162.244 153.279 162.244 157.394V165.775Z" fill="white"/>
</g>
</g>
<defs>
<clipPath id="clip0">
<rect width="311" height="194.987" fill="white" transform="translate(0.5 0.00683594)"/>
</clipPath>
<clipPath id="clip1">
<rect width="311" height="47" fill="white" transform="translate(0.5 0.00683594)"/>
</clipPath>
<clipPath id="clip2">
<rect width="172" height="47" fill="white" transform="translate(0.5 57.0068)"/>
</clipPath>
<clipPath id="clip3">
<rect width="170.96" height="80.9866" fill="white" transform="translate(0.5 114.007)"/>
</clipPath>
</defs>
</svg>
